Griffith_Gothic-Regular.ufo
<glyph name="exclam" format="1">
  <advance width="252"/>
  <unicode hex="0021"/>
  <outline>
    <contour>
      <point x="180" y="720" type="line"/>
      <point x="150" y="214" type="line"/>
      <point x="102" y="214" type="line"/>
      <point x="72" y="720" type="line"/>
    </contour>
    <contour>
      <point x="183" y="50" type="curve" smooth="yes"/>
      <point x="183" y="18"/>
      <point x="159" y="-7"/>
      <point x="126" y="-7" type="curve" smooth="yes"/>
      <point x="93" y="-7"/>
      <point x="68" y="18"/>
      <point x="68" y="50" type="curve" smooth="yes"/>
      <point x="68" y="83"/>
      <point x="93" y="107"/>
      <point x="126" y="107" type="curve" smooth="yes"/>
      <point x="159" y="107"/>
      <point x="183" y="83"/>
    </contour>
  </outline>
</glyph>
<glyph name="quotedbl" format="1">
  <advance width="360"/>
  <unicode hex="0022"/>
  <outline>
    <contour>
      <point x="309" y="720" type="line"/>
      <point x="286" y="489" type="line"/>
      <point x="238" y="489" type="line"/>
      <point x="215" y="720" type="line"/>
    </contour>
    <contour>
      <point x="145" y="720" type="line"/>
      <point x="123" y="489" type="line"/>
      <point x="74" y="489" type="line"/>
      <point x="51" y="720" type="line"/>
    </contour>
  </outline>
</glyph>
<glyph name="dollar" format="1">
  <advance width="557"/>
  <unicode hex="0024"/>
  <outline>
    <contour>
      <point x="522" y="192" type="curve" smooth="yes"/>
      <point x="522" y="76"/>
      <point x="429" y="8"/>
      <point x="308" y="0" type="curve"/>
      <point x="308" y="-95" type="line"/>
      <point x="252" y="-95" type="line"/>
      <point x="252" y="1" type="line"/>
      <point x="162" y="7"/>
      <point x="87" y="41"/>
      <point x="30" y="100" type="curve"/>
      <point x="79" y="156" type="line"/>
      <point x="132" y="102"/>
      <point x="186" y="72"/>
      <point x="256" y="65" type="curve"/>
      <point x="256" y="342" type="line"/>
      <point x="116" y="386"/>
      <point x="52" y="439"/>
      <point x="52" y="542" type="curve" smooth="yes"/>
      <point x="52" y="645"/>
      <point x="134" y="715"/>
      <point x="252" y="720" type="curve"/>
      <point x="252" y="762" type="line"/>
      <point x="308" y="762" type="line"/>
      <point x="308" y="719" type="line"/>
      <point x="385" y="713"/>
      <point x="442" y="686"/>
      <point x="498" y="633" type="curve"/>
      <point x="449" y="577" type="line"/>
      <point x="405" y="621"/>
      <point x="362" y="647"/>
      <point x="304" y="655" type="curve"/>
      <point x="304" y="403" type="line"/>
      <point x="466" y="350"/>
      <point x="522" y="297"/>
    </contour>
    <contour>
      <point x="256" y="418" type="curve"/>
      <point x="256" y="656" type="line"/>
      <point x="175" y="653"/>
      <point x="132" y="611"/>
      <point x="132" y="547" type="curve" smooth="yes"/>
      <point x="132" y="486"/>
      <point x="170" y="450"/>
    </contour>
    <contour>
      <point x="442" y="187" type="curve" smooth="yes"/>
      <point x="442" y="251"/>
      <point x="411" y="288"/>
      <point x="304" y="327" type="curve"/>
      <point x="304" y="63" type="line"/>
      <point x="390" y="69"/>
      <point x="442" y="112"/>
    </contour>
  </outline>
</glyph>
<glyph name="quotesingle" format="1">
  <advance width="198"/>
  <unicode hex="0027"/>
  <outline>
    <contour>
      <point x="147" y="720" type="line"/>
      <point x="124" y="489" type="line"/>
      <point x="74" y="489" type="line"/>
      <point x="51" y="720" type="line"/>
    </contour>
  </outline>
</glyph>
<glyph name="parenleft" format="1">
  <advance width="329"/>
  <unicode hex="0028"/>
  <outline>
    <contour>
      <point x="301" y="-95" type="curve"/>
      <point x="224" y="-95" type="line"/>
      <point x="134" y="2"/>
      <point x="53" y="135"/>
      <point x="53" y="320" type="curve" smooth="yes"/>
      <point x="53" y="505"/>
      <point x="134" y="638"/>
      <point x="224" y="735" type="curve"/>
      <point x="301" y="735" type="line"/>
      <point x="202" y="616"/>
      <point x="146" y="484"/>
      <point x="146" y="320" type="curve" smooth="yes"/>
      <point x="146" y="156"/>
      <point x="202" y="24"/>
    </contour>
  </outline>
</glyph>
<glyph name="plus" format="1">
  <advance width="600"/>
  <unicode hex="002B"/>
  <outline>
    <contour>
      <point x="556" y="317" type="line"/>
      <point x="339" y="317" type="line"/>
      <point x="339" y="99" type="line"/>
      <point x="261" y="99" type="line"/>
      <point x="261" y="317" type="line"/>
      <point x="44" y="317" type="line"/>
      <point x="44" y="393" type="line"/>
      <point x="261" y="393" type="line"/>
      <point x="261" y="611" type="line"/>
      <point x="339" y="611" type="line"/>
      <point x="339" y="393" type="line"/>
      <point x="556" y="393" type="line"/>
    </contour>
  </outline>
</glyph>
<glyph name="comma" format="1">
  <advance width="198"/>
  <unicode hex="002C"/>
  <outline>
    <contour>
      <point x="160" y="113" type="line"/>
      <point x="82" y="-118" type="line"/>
      <point x="30" y="-118" type="line"/>
      <point x="62" y="113" type="line"/>
    </contour>
  </outline>
</glyph>
<glyph name="hyphen" format="1">
  <advance width="321"/>
  <unicode hex="002D"/>
  <unicode hex="2010"/>
  <unicode hex="2011"/>
  <outline>
    <contour>
      <point x="282" y="243" type="line"/>
      <point x="40" y="243" type="line"/>
      <point x="40" y="322" type="line"/>
      <point x="282" y="322" type="line"/>
    </contour>
  </outline>
</glyph>
<glyph name="period" format="1">
  <advance width="198"/>
  <unicode hex="002E"/>
  <outline>
    <contour>
      <point x="158" y="52" type="curve" smooth="yes"/>
      <point x="158" y="18"/>
      <point x="133" y="-7"/>
      <point x="99" y="-7" type="curve" smooth="yes"/>
      <point x="65" y="-7"/>
      <point x="40" y="18"/>
      <point x="40" y="52" type="curve" smooth="yes"/>
      <point x="40" y="85"/>
      <point x="65" y="110"/>
      <point x="99" y="110" type="curve" smooth="yes"/>
      <point x="133" y="110"/>
      <point x="158" y="85"/>
    </contour>
  </outline>
</glyph>
<glyph name="slash" format="1">
  <advance width="394"/>
  <unicode hex="002F"/>
  <outline>
    <contour>
      <point x="378" y="735" type="line"/>
      <point x="70" y="-95" type="line"/>
      <point x="-15" y="-95" type="line"/>
      <point x="293" y="735" type="line"/>
    </contour>
  </outline>
</glyph>
<glyph name="three" format="1">
  <advance width="526"/>
  <unicode hex="0033"/>
  <outline>
    <contour>
      <point x="489" y="251" type="curve" smooth="yes"/>
      <point x="489" y="86"/>
      <point x="290" y="-8"/>
      <point x="21" y="-6" type="curve"/>
      <point x="21" y="61" type="line"/>
      <point x="250" y="63"/>
      <point x="398" y="133"/>
      <point x="398" y="250" type="curve" smooth="yes"/>
      <point x="398" y="322"/>
      <point x="351" y="356"/>
      <point x="280" y="356" type="curve" smooth="yes"/>
      <point x="239" y="356"/>
      <point x="211" y="350"/>
      <point x="179" y="339" type="curve"/>
      <point x="157" y="398" type="line"/>
      <point x="300" y="453"/>
      <point x="360" y="493"/>
      <point x="360" y="569" type="curve" smooth="yes"/>
      <point x="360" y="626"/>
      <point x="323" y="664"/>
      <point x="259" y="664" type="curve" smooth="yes"/>
      <point x="202" y="664"/>
      <point x="148" y="632"/>
      <point x="92" y="573" type="curve"/>
      <point x="43" y="621" type="line"/>
      <point x="105" y="687"/>
      <point x="176" y="732"/>
      <point x="270" y="732" type="curve" smooth="yes"/>
      <point x="385" y="732"/>
      <point x="449" y="670"/>
      <point x="449" y="583" type="curve" smooth="yes"/>
      <point x="449" y="499"/>
      <point x="388" y="448"/>
      <point x="288" y="406" type="curve"/>
      <point x="290" y="402" type="line"/>
      <point x="403" y="414"/>
      <point x="489" y="364"/>
    </contour>
  </outline>
</glyph>
<glyph name="five" format="1">
  <advance width="548"/>
  <unicode hex="0035"/>
  <outline>
    <contour>
      <point x="506" y="244" type="line" smooth="yes"/>
      <point x="506" y="74"/>
      <point x="382" y="-10"/>
      <point x="232" y="-10" type="curve" smooth="yes"/>
      <point x="151" y="-10"/>
      <point x="100" y="2"/>
      <point x="33" y="32" type="curve"/>
      <point x="58" y="101" type="line"/>
      <point x="123" y="71"/>
      <point x="168" y="62"/>
      <point x="230" y="62" type="curve" smooth="yes"/>
      <point x="342" y="62"/>
      <point x="413" y="129"/>
      <point x="413" y="242" type="curve" smooth="yes"/>
      <point x="413" y="246" type="line" smooth="yes"/>
      <point x="413" y="342"/>
      <point x="365" y="394"/>
      <point x="279" y="394" type="curve" smooth="yes"/>
      <point x="226" y="394"/>
      <point x="189" y="372"/>
      <point x="151" y="337" type="curve"/>
      <point x="69" y="337" type="line"/>
      <point x="106" y="720" type="line"/>
      <point x="467" y="720" type="line"/>
      <point x="467" y="647" type="line"/>
      <point x="170" y="647" type="line"/>
      <point x="144" y="399" type="line"/>
      <point x="152" y="399" type="line"/>
      <point x="194" y="438"/>
      <point x="234" y="462"/>
      <point x="307" y="462" type="curve" smooth="yes"/>
      <point x="426" y="462"/>
      <point x="506" y="388"/>
      <point x="506" y="251" type="curve" smooth="yes"/>
    </contour>
  </outline>
</glyph>
<glyph name="six" format="1">
  <advance width="568"/>
  <unicode hex="0036"/>
  <outline>
    <contour>
      <point x="538" y="228" type="curve" smooth="yes"/>
      <point x="538" y="82"/>
      <point x="431" y="-12"/>
      <point x="288" y="-12" type="curve" smooth="yes"/>
      <point x="144" y="-12"/>
      <point x="45" y="75"/>
      <point x="45" y="250" type="curve" smooth="yes"/>
      <point x="45" y="414"/>
      <point x="130" y="586"/>
      <point x="276" y="720" type="curve"/>
      <point x="389" y="720" type="line"/>
      <point x="251" y="609"/>
      <point x="161" y="475"/>
      <point x="138" y="367" type="curve"/>
      <point x="145" y="367" type="line"/>
      <point x="190" y="420"/>
      <point x="242" y="453"/>
      <point x="324" y="453" type="curve" smooth="yes"/>
      <point x="444" y="453"/>
      <point x="538" y="371"/>
    </contour>
    <contour>
      <point x="448" y="223" type="curve" smooth="yes"/>
      <point x="448" y="323"/>
      <point x="391" y="388"/>
      <point x="297" y="388" type="curve" smooth="yes"/>
      <point x="201" y="388"/>
      <point x="135" y="314"/>
      <point x="135" y="222" type="curve" smooth="yes"/>
      <point x="135" y="122"/>
      <point x="199" y="53"/>
      <point x="291" y="53" type="curve" smooth="yes"/>
      <point x="381" y="53"/>
      <point x="448" y="121"/>
    </contour>
  </outline>
</glyph>
<glyph name="seven" format="1">
  <advance width="507"/>
  <unicode hex="0037"/>
  <outline>
    <contour>
      <point x="491" y="664" type="line"/>
      <point x="365" y="490"/>
      <point x="243" y="223"/>
      <point x="198" y="0" type="curve"/>
      <point x="104" y="0" type="line"/>
      <point x="156" y="231"/>
      <point x="279" y="485"/>
      <point x="394" y="646" type="curve"/>
      <point x="20" y="646" type="line"/>
      <point x="20" y="720" type="line"/>
      <point x="491" y="720" type="line"/>
    </contour>
  </outline>
</glyph>
<glyph name="eight" format="1">
  <advance width="590"/>
  <unicode hex="0038"/>
  <outline>
    <contour>
      <point x="546" y="196" type="curve" smooth="yes"/>
      <point x="546" y="62"/>
      <point x="428" y="-12"/>
      <point x="295" y="-12" type="curve" smooth="yes"/>
      <point x="162" y="-12"/>
      <point x="44" y="60"/>
      <point x="44" y="194" type="curve" smooth="yes"/>
      <point x="44" y="299"/>
      <point x="114" y="361"/>
      <point x="191" y="382" type="curve"/>
      <point x="191" y="388" type="line"/>
      <point x="124" y="409"/>
      <point x="64" y="461"/>
      <point x="64" y="547" type="curve" smooth="yes"/>
      <point x="64" y="658"/>
      <point x="164" y="732"/>
      <point x="295" y="732" type="curve" smooth="yes"/>
      <point x="426" y="732"/>
      <point x="526" y="660"/>
      <point x="526" y="549" type="curve" smooth="yes"/>
      <point x="526" y="463"/>
      <point x="465" y="410"/>
      <point x="400" y="388" type="curve"/>
      <point x="400" y="382" type="line"/>
      <point x="476" y="361"/>
      <point x="546" y="301"/>
    </contour>
    <contour>
      <point x="437" y="538" type="curve" smooth="yes"/>
      <point x="437" y="616"/>
      <point x="381" y="667"/>
      <point x="295" y="667" type="curve" smooth="yes"/>
      <point x="209" y="667"/>
      <point x="153" y="616"/>
      <point x="153" y="540" type="curve" smooth="yes"/>
      <point x="153" y="461"/>
      <point x="216" y="410"/>
      <point x="295" y="410" type="curve" smooth="yes"/>
      <point x="374" y="410"/>
      <point x="437" y="457"/>
    </contour>
    <contour>
      <point x="456" y="201" type="curve" smooth="yes"/>
      <point x="456" y="297"/>
      <point x="384" y="354"/>
      <point x="295" y="354" type="curve" smooth="yes"/>
      <point x="206" y="354"/>
      <point x="134" y="299"/>
      <point x="134" y="203" type="curve" smooth="yes"/>
      <point x="134" y="108"/>
      <point x="203" y="53"/>
      <point x="295" y="53" type="curve" smooth="yes"/>
      <point x="386" y="53"/>
      <point x="456" y="107"/>
    </contour>
  </outline>
</glyph>
<glyph name="nine" format="1">
  <advance width="568"/>
  <unicode hex="0039"/>
  <outline>
    <contour>
      <point x="523" y="470" type="curve" smooth="yes"/>
      <point x="523" y="306"/>
      <point x="438" y="134"/>
      <point x="292" y="0" type="curve"/>
      <point x="179" y="0" type="line"/>
      <point x="317" y="111"/>
      <point x="406" y="245"/>
      <point x="429" y="353" type="curve"/>
      <point x="423" y="353" type="line"/>
      <point x="378" y="300"/>
      <point x="326" y="267"/>
      <point x="244" y="267" type="curve" smooth="yes"/>
      <point x="124" y="267"/>
      <point x="30" y="349"/>
      <point x="30" y="492" type="curve" smooth="yes"/>
      <point x="30" y="638"/>
      <point x="137" y="732"/>
      <point x="280" y="732" type="curve" smooth="yes"/>
      <point x="424" y="732"/>
      <point x="523" y="645"/>
    </contour>
    <contour>
      <point x="433" y="498" type="curve" smooth="yes"/>
      <point x="433" y="598"/>
      <point x="369" y="667"/>
      <point x="278" y="667" type="curve" smooth="yes"/>
      <point x="186" y="667"/>
      <point x="120" y="599"/>
      <point x="120" y="497" type="curve" smooth="yes"/>
      <point x="120" y="397"/>
      <point x="177" y="332"/>
      <point x="271" y="332" type="curve" smooth="yes"/>
      <point x="368" y="332"/>
      <point x="433" y="406"/>
    </contour>
  </outline>
</glyph>
<glyph name="semicolon" format="1">
  <advance width="215"/>
  <unicode hex="003B"/>
  <outline>
    <contour>
      <point x="168" y="467" type="curve" smooth="yes"/>
      <point x="168" y="433"/>
      <point x="143" y="408"/>
      <point x="109" y="408" type="curve" smooth="yes"/>
      <point x="75" y="408"/>
      <point x="50" y="433"/>
      <point x="50" y="467" type="curve" smooth="yes"/>
      <point x="50" y="501"/>
      <point x="75" y="526"/>
      <point x="109" y="526" type="curve" smooth="yes"/>
      <point x="143" y="526"/>
      <point x="168" y="501"/>
    </contour>
    <contour>
      <point x="160" y="113" type="line"/>
      <point x="82" y="-118" type="line"/>
      <point x="30" y="-118" type="line"/>
      <point x="62" y="113" type="line"/>
    </contour>
  </outline>
</glyph>
<glyph name="equal" format="1">
  <advance width="600"/>
  <unicode hex="003D"/>
  <outline>
    <contour>
      <point x="542" y="437" type="line"/>
      <point x="58" y="437" type="line"/>
      <point x="58" y="516" type="line"/>
      <point x="542" y="516" type="line"/>
    </contour>
    <contour>
      <point x="542" y="194" type="line"/>
      <point x="58" y="194" type="line"/>
      <point x="58" y="273" type="line"/>
      <point x="542" y="273" type="line"/>
    </contour>
  </outline>
</glyph>
<glyph name="greater" format="1">
  <advance width="600"/>
  <unicode hex="003E"/>
  <outline>
    <contour>
      <point x="553" y="317" type="line"/>
      <point x="54" y="95" type="line"/>
      <point x="54" y="176" type="line"/>
      <point x="467" y="355" type="line"/>
      <point x="54" y="534" type="line"/>
      <point x="54" y="615" type="line"/>
      <point x="553" y="393" type="line"/>
    </contour>
  </outline>
</glyph>
<glyph name="B" format="1">
  <advance width="614"/>
  <unicode hex="0042"/>
  <outline>
    <contour>
      <point x="575" y="200" type="curve" smooth="yes"/>
      <point x="575" y="71"/>
      <point x="471" y="0"/>
      <point x="326" y="0" type="curve" smooth="yes"/>
      <point x="78" y="0" type="line"/>
      <point x="78" y="720" type="line"/>
      <point x="330" y="720" type="line" smooth="yes"/>
      <point x="464" y="720"/>
      <point x="547" y="656"/>
      <point x="547" y="547" type="curve" smooth="yes"/>
      <point x="547" y="452"/>
      <point x="484" y="408"/>
      <point x="418" y="389" type="curve"/>
      <point x="418" y="385" type="line"/>
      <point x="512" y="363"/>
      <point x="575" y="309"/>
    </contour>
    <contour>
      <point x="456" y="537" type="curve" smooth="yes"/>
      <point x="456" y="612"/>
      <point x="405" y="651"/>
      <point x="317" y="651" type="curve" smooth="yes"/>
      <point x="167" y="651" type="line"/>
      <point x="167" y="416" type="line"/>
      <point x="312" y="416" type="line" smooth="yes"/>
      <point x="401" y="416"/>
      <point x="456" y="455"/>
    </contour>
    <contour>
      <point x="484" y="206" type="curve" smooth="yes"/>
      <point x="484" y="300"/>
      <point x="430" y="352"/>
      <point x="313" y="352" type="curve" smooth="yes"/>
      <point x="167" y="352" type="line"/>
      <point x="167" y="69" type="line"/>
      <point x="314" y="69" type="line" smooth="yes"/>
      <point x="416" y="69"/>
      <point x="484" y="112"/>
    </contour>
  </outline>
</glyph>
<glyph name="C" format="1">
  <advance width="587"/>
  <unicode hex="0043"/>
  <outline>
    <contour>
      <point x="551" y="210" type="line"/>
      <point x="522" y="76"/>
      <point x="447" y="-12"/>
      <point x="311" y="-12" type="curve" smooth="yes"/>
      <point x="150" y="-12"/>
      <point x="49" y="125"/>
      <point x="49" y="348" type="curve" smooth="yes"/>
      <point x="49" y="370" type="line" smooth="yes"/>
      <point x="49" y="594"/>
      <point x="149" y="732"/>
      <point x="312" y="732" type="curve" smooth="yes"/>
      <point x="447" y="732"/>
      <point x="520" y="648"/>
      <point x="547" y="521" type="curve"/>
      <point x="460" y="498" type="line"/>
      <point x="436" y="604"/>
      <point x="392" y="660"/>
      <point x="312" y="660" type="curve" smooth="yes"/>
      <point x="198" y="660"/>
      <point x="145" y="543"/>
      <point x="145" y="380" type="curve" smooth="yes"/>
      <point x="145" y="342" type="line" smooth="yes"/>
      <point x="145" y="178"/>
      <point x="198" y="60"/>
      <point x="313" y="60" type="curve" smooth="yes"/>
      <point x="398" y="60"/>
      <point x="443" y="125"/>
      <point x="466" y="232" type="curve"/>
    </contour>
  </outline>
</glyph>
<glyph name="I" format="1">
  <advance width="399"/>
  <unicode hex="0049"/>
  <outline>
    <contour>
      <point x="348" y="0" type="line"/>
      <point x="51" y="0" type="line"/>
      <point x="51" y="44" type="line"/>
      <point x="153" y="44" type="line"/>
      <point x="153" y="676" type="line"/>
      <point x="51" y="676" type="line"/>
      <point x="51" y="720" type="line"/>
      <point x="348" y="720" type="line"/>
      <point x="348" y="676" type="line"/>
      <point x="246" y="676" type="line"/>
      <point x="246" y="44" type="line"/>
      <point x="348" y="44" type="line"/>
    </contour>
  </outline>
</glyph>
<glyph name="N" format="1">
  <advance width="647"/>
  <unicode hex="004E"/>
  <outline>
    <contour>
      <point x="569" y="0" type="line"/>
      <point x="466" y="0" type="line"/>
      <point x="171" y="589" type="line"/>
      <point x="164" y="589" type="line"/>
      <point x="164" y="0" type="line"/>
      <point x="78" y="0" type="line"/>
      <point x="78" y="720" type="line"/>
      <point x="189" y="720" type="line"/>
      <point x="475" y="147" type="line"/>
      <point x="482" y="147" type="line"/>
      <point x="482" y="720" type="line"/>
      <point x="569" y="720" type="line"/>
    </contour>
  </outline>
</glyph>
<glyph name="O" format="1">
  <advance width="624"/>
  <unicode hex="004F"/>
  <outline>
    <contour>
      <point x="575" y="350" type="line" smooth="yes"/>
      <point x="575" y="126"/>
      <point x="476" y="-12"/>
      <point x="312" y="-12" type="curve" smooth="yes"/>
      <point x="149" y="-12"/>
      <point x="49" y="125"/>
      <point x="49" y="348" type="curve" smooth="yes"/>
      <point x="49" y="370" type="line" smooth="yes"/>
      <point x="49" y="594"/>
      <point x="149" y="732"/>
      <point x="312" y="732" type="curve" smooth="yes"/>
      <point x="476" y="732"/>
      <point x="575" y="595"/>
      <point x="575" y="372" type="curve" smooth="yes"/>
    </contour>
    <contour>
      <point x="479" y="340" type="curve" smooth="yes"/>
      <point x="479" y="378" type="line" smooth="yes"/>
      <point x="479" y="544"/>
      <point x="425" y="660"/>
      <point x="312" y="660" type="curve" smooth="yes"/>
      <point x="199" y="660"/>
      <point x="145" y="545"/>
      <point x="145" y="380" type="curve" smooth="yes"/>
      <point x="145" y="342" type="line" smooth="yes"/>
      <point x="145" y="175"/>
      <point x="199" y="60"/>
      <point x="312" y="60" type="curve" smooth="yes"/>
      <point x="425" y="60"/>
      <point x="479" y="174"/>
    </contour>
  </outline>
</glyph>
<glyph name="S" format="1">
  <advance width="573"/>
  <unicode hex="0053"/>
  <outline>
    <contour>
      <point x="529" y="189" type="curve" smooth="yes"/>
      <point x="529" y="57"/>
      <point x="425" y="-11"/>
      <point x="293" y="-11" type="curve" smooth="yes"/>
      <point x="165" y="-11"/>
      <point x="83" y="41"/>
      <point x="38" y="145" type="curve"/>
      <point x="103" y="193" type="line"/>
      <point x="141" y="103"/>
      <point x="208" y="60"/>
      <point x="295" y="60" type="curve" smooth="yes"/>
      <point x="380" y="60"/>
      <point x="443" y="103"/>
      <point x="443" y="180" type="curve" smooth="yes"/>
      <point x="443" y="250"/>
      <point x="409" y="287"/>
      <point x="272" y="330" type="curve" smooth="yes"/>
      <point x="114" y="379"/>
      <point x="60" y="438"/>
      <point x="60" y="546" type="curve" smooth="yes"/>
      <point x="60" y="651"/>
      <point x="144" y="731"/>
      <point x="276" y="731" type="curve" smooth="yes"/>
      <point x="383" y="731"/>
      <point x="460" y="688"/>
      <point x="504" y="599" type="curve"/>
      <point x="440" y="550" type="line"/>
      <point x="402" y="619"/>
      <point x="353" y="660"/>
      <point x="275" y="660" type="curve" smooth="yes"/>
      <point x="190" y="660"/>
      <point x="147" y="610"/>
      <point x="147" y="555" type="curve" smooth="yes"/>
      <point x="147" y="488"/>
      <point x="183" y="452"/>
      <point x="312" y="411" type="curve" smooth="yes"/>
      <point x="478" y="358"/>
      <point x="529" y="298"/>
    </contour>
  </outline>
</glyph>
<glyph name="U" format="1">
  <advance width="627"/>
  <unicode hex="0055"/>
  <outline>
    <contour>
      <point x="555" y="252" type="line" smooth="yes"/>
      <point x="555" y="66"/>
      <point x="453" y="-12"/>
      <point x="313" y="-12" type="curve" smooth="yes"/>
      <point x="172" y="-12"/>
      <point x="72" y="66"/>
      <point x="72" y="252" type="curve" smooth="yes"/>
      <point x="72" y="720" type="line"/>
      <point x="165" y="720" type="line"/>
      <point x="165" y="251" type="line" smooth="yes"/>
      <point x="165" y="117"/>
      <point x="226" y="62"/>
      <point x="317" y="62" type="curve" smooth="yes"/>
      <point x="407" y="62"/>
      <point x="467" y="114"/>
      <point x="467" y="248" type="curve" smooth="yes"/>
      <point x="467" y="720" type="line"/>
      <point x="555" y="720" type="line"/>
    </contour>
  </outline>
</glyph>
<glyph name="W" format="1">
  <advance width="966"/>
  <unicode hex="0057"/>
  <outline>
    <contour>
      <point x="931" y="720" type="line"/>
      <point x="742" y="-5" type="line"/>
      <point x="638" y="-5" type="line"/>
      <point x="483" y="607" type="line"/>
      <point x="475" y="607" type="line"/>
      <point x="321" y="-5" type="line"/>
      <point x="217" y="-5" type="line"/>
      <point x="28" y="720" type="line"/>
      <point x="125" y="720" type="line"/>
      <point x="270" y="103" type="line"/>
      <point x="277" y="103" type="line"/>
      <point x="426" y="720" type="line"/>
      <point x="535" y="720" type="line"/>
      <point x="686" y="103" type="line"/>
      <point x="693" y="103" type="line"/>
      <point x="837" y="720" type="line"/>
    </contour>
  </outline>
</glyph>
<glyph name="X" format="1">
  <advance width="633"/>
  <unicode hex="0058"/>
  <outline>
    <contour>
      <point x="607" y="0" type="line"/>
      <point x="502" y="0" type="line"/>
      <point x="313" y="298" type="line"/>
      <point x="120" y="0" type="line"/>
      <point x="26" y="0" type="line"/>
      <point x="267" y="366" type="line"/>
      <point x="41" y="720" type="line"/>
      <point x="145" y="720" type="line"/>
      <point x="321" y="444" type="line"/>
      <point x="498" y="720" type="line"/>
      <point x="592" y="720" type="line"/>
      <point x="365" y="376" type="line"/>
    </contour>
  </outline>
</glyph>
<glyph name="Y" format="1">
  <advance width="623"/>
  <unicode hex="0059"/>
  <outline>
    <contour>
      <point x="608" y="720" type="line"/>
      <point x="358" y="280" type="line"/>
      <point x="358" y="0" type="line"/>
      <point x="264" y="0" type="line"/>
      <point x="264" y="278" type="line"/>
      <point x="15" y="720" type="line"/>
      <point x="116" y="720" type="line"/>
      <point x="315" y="359" type="line"/>
      <point x="514" y="720" type="line"/>
    </contour>
  </outline>
</glyph>
<glyph name="bracketleft" format="1">
  <advance width="351"/>
  <unicode hex="005B"/>
  <outline>
    <contour>
      <point x="327" y="-80" type="line"/>
      <point x="66" y="-89" type="line"/>
      <point x="66" y="729" type="line"/>
      <point x="327" y="720" type="line"/>
      <point x="327" y="675" type="line"/>
      <point x="150" y="682" type="line"/>
      <point x="150" y="-42" type="line"/>
      <point x="327" y="-35" type="line"/>
    </contour>
  </outline>
</glyph>
<glyph name="backslash" format="1">
  <advance width="394"/>
  <unicode hex="005C"/>
  <outline>
    <contour>
      <point x="407" y="-95" type="line"/>
      <point x="321" y="-95" type="line"/>
      <point x="14" y="735" type="line"/>
      <point x="101" y="735" type="line"/>
    </contour>
  </outline>
</glyph>
<glyph name="asciicircum" format="1">
  <advance width="550"/>
  <unicode hex="005E"/>
  <outline>
    <contour>
      <point x="504" y="407" type="line"/>
      <point x="444" y="407" type="line"/>
      <point x="275" y="645" type="line"/>
      <point x="106" y="407" type="line"/>
      <point x="46" y="407" type="line"/>
      <point x="232" y="725" type="line"/>
      <point x="318" y="725" type="line"/>
    </contour>
  </outline>
</glyph>
<glyph name="grave" format="1">
  <advance width="500"/>
  <unicode hex="0060"/>
  <outline>
    <contour>
      <point x="337" y="592" type="line"/>
      <point x="279" y="592" type="line"/>
      <point x="139" y="743" type="line"/>
      <point x="249" y="743" type="line"/>
    </contour>
  </outline>
</glyph>
<glyph name="a" format="1">
  <advance width="496"/>
  <unicode hex="0061"/>
  <outline>
    <contour>
      <point x="476" y="-4" type="line"/>
      <point x="397" y="-4"/>
      <point x="350" y="31"/>
      <point x="341" y="83" type="curve"/>
      <point x="335" y="83" type="line"/>
      <point x="285" y="21"/>
      <point x="233" y="-7"/>
      <point x="171" y="-7" type="curve" smooth="yes"/>
      <point x="94" y="-7"/>
      <point x="29" y="41"/>
      <point x="29" y="131" type="curve" smooth="yes"/>
      <point x="29" y="237"/>
      <point x="133" y="306"/>
      <point x="339" y="308" type="curve"/>
      <point x="339" y="364" type="line" smooth="yes"/>
      <point x="339" y="433"/>
      <point x="310" y="464"/>
      <point x="252" y="464" type="curve" smooth="yes"/>
      <point x="201" y="464"/>
      <point x="155" y="447"/>
      <point x="94" y="413" type="curve"/>
      <point x="69" y="469" type="line"/>
      <point x="130" y="502"/>
      <point x="189" y="526"/>
      <point x="267" y="526" type="curve" smooth="yes"/>
      <point x="375" y="526"/>
      <point x="421" y="478"/>
      <point x="421" y="367" type="curve" smooth="yes"/>
      <point x="421" y="105" type="line" smooth="yes"/>
      <point x="421" y="62"/>
      <point x="437" y="39"/>
      <point x="476" y="35" type="curve"/>
    </contour>
    <contour>
      <point x="339" y="127" type="curve"/>
      <point x="339" y="267" type="line"/>
      <point x="174" y="267"/>
      <point x="111" y="209"/>
      <point x="111" y="140" type="curve" smooth="yes"/>
      <point x="111" y="82"/>
      <point x="149" y="49"/>
      <point x="202" y="49" type="curve" smooth="yes"/>
      <point x="252" y="49"/>
      <point x="300" y="74"/>
    </contour>
  </outline>
</glyph>
<glyph name="e" format="1">
  <advance width="470"/>
  <unicode hex="0065"/>
  <outline>
    <contour>
      <point x="251" y="-9" type="curve" smooth="yes"/>
      <point x="124" y="-9"/>
      <point x="39" y="87"/>
      <point x="39" y="256" type="curve" smooth="yes"/>
      <point x="39" y="265" type="line" smooth="yes"/>
      <point x="39" y="423"/>
      <point x="120" y="531"/>
      <point x="239" y="531" type="curve" smooth="yes"/>
      <point x="359" y="531"/>
      <point x="431" y="426"/>
      <point x="431" y="263" type="curve" smooth="yes"/>
      <point x="431" y="242" type="line"/>
      <point x="122" y="242" type="line"/>
      <point x="125" y="115"/>
      <point x="179" y="53"/>
      <point x="262" y="53" type="curve" smooth="yes"/>
      <point x="313" y="53"/>
      <point x="355" y="73"/>
      <point x="400" y="110" type="curve"/>
      <point x="429" y="58" type="line"/>
      <point x="378" y="16"/>
      <point x="326" y="-9"/>
    </contour>
    <contour>
      <point x="122" y="287" type="curve"/>
      <point x="348" y="287" type="line"/>
      <point x="342" y="412"/>
      <point x="308" y="475"/>
      <point x="239" y="475" type="curve" smooth="yes"/>
      <point x="168" y="475"/>
      <point x="127" y="406"/>
    </contour>
  </outline>
</glyph>
<glyph name="f" format="1">
  <advance width="340"/>
  <unicode hex="0066"/>
  <outline>
    <contour>
      <point x="358" y="679" type="line"/>
      <point x="335" y="691"/>
      <point x="310" y="698"/>
      <point x="273" y="698" type="curve" smooth="yes"/>
      <point x="228" y="698"/>
      <point x="204" y="672"/>
      <point x="204" y="616" type="curve" smooth="yes"/>
      <point x="204" y="517" type="line"/>
      <point x="332" y="517" type="line"/>
      <point x="332" y="455" type="line"/>
      <point x="204" y="455" type="line"/>
      <point x="204" y="0" type="line"/>
      <point x="117" y="0" type="line"/>
      <point x="117" y="455" type="line"/>
      <point x="16" y="455" type="line"/>
      <point x="16" y="517" type="line"/>
      <point x="117" y="517" type="line"/>
      <point x="117" y="613" type="line" smooth="yes"/>
      <point x="117" y="710"/>
      <point x="171" y="759"/>
      <point x="260" y="759" type="curve" smooth="yes"/>
      <point x="305" y="759"/>
      <point x="331" y="754"/>
      <point x="358" y="745" type="curve"/>
    </contour>
  </outline>
</glyph>
<glyph name="i" format="1">
  <advance width="233"/>
  <unicode hex="0069"/>
  <outline>
    <contour>
      <point x="168" y="630" type="line"/>
      <point x="66" y="630" type="line"/>
      <point x="66" y="723" type="line"/>
      <point x="168" y="723" type="line"/>
    </contour>
    <contour>
      <point x="160" y="0" type="line"/>
      <point x="73" y="0" type="line"/>
      <point x="73" y="521" type="line"/>
      <point x="160" y="521" type="line"/>
    </contour>
  </outline>
</glyph>
<glyph name="k" format="1">
  <advance width="480"/>
  <unicode hex="006B"/>
  <outline>
    <contour>
      <point x="152" y="0" type="line"/>
      <point x="65" y="0" type="line"/>
      <point x="65" y="737" type="line"/>
      <point x="152" y="760" type="line"/>
    </contour>
    <contour>
      <point x="475" y="0" type="line"/>
      <point x="377" y="0" type="line"/>
      <point x="170" y="261" type="line"/>
      <point x="170" y="264" type="line"/>
      <point x="372" y="521" type="line"/>
      <point x="467" y="521" type="line"/>
      <point x="260" y="265" type="line"/>
    </contour>
  </outline>
</glyph>
<glyph name="l" format="1">
  <advance width="233"/>
  <unicode hex="006C"/>
  <outline>
    <contour>
      <point x="160" y="0" type="line"/>
      <point x="73" y="0" type="line"/>
      <point x="73" y="737" type="line"/>
      <point x="160" y="760" type="line"/>
    </contour>
  </outline>
</glyph>
<glyph name="m" format="1">
  <advance width="789"/>
  <unicode hex="006D"/>
  <outline>
    <contour>
      <point x="729" y="0" type="line"/>
      <point x="641" y="0" type="line"/>
      <point x="641" y="385" type="line" smooth="yes"/>
      <point x="641" y="436"/>
      <point x="620" y="463"/>
      <point x="578" y="463" type="curve" smooth="yes"/>
      <point x="534" y="463"/>
      <point x="486" y="424"/>
      <point x="440" y="354" type="curve"/>
      <point x="440" y="0" type="line"/>
      <point x="353" y="0" type="line"/>
      <point x="353" y="385" type="line" smooth="yes"/>
      <point x="353" y="436"/>
      <point x="332" y="463"/>
      <point x="289" y="463" type="curve" smooth="yes"/>
      <point x="246" y="463"/>
      <point x="198" y="424"/>
      <point x="152" y="354" type="curve"/>
      <point x="152" y="0" type="line"/>
      <point x="65" y="0" type="line"/>
      <point x="65" y="507" type="line"/>
      <point x="152" y="530" type="line"/>
      <point x="152" y="401" type="line"/>
      <point x="158" y="401" type="line"/>
      <point x="213" y="478"/>
      <point x="265" y="526"/>
      <point x="334" y="526" type="curve" smooth="yes"/>
      <point x="403" y="526"/>
      <point x="440" y="482"/>
      <point x="440" y="417" type="curve" smooth="yes"/>
      <point x="440" y="401" type="line"/>
      <point x="446" y="401" type="line"/>
      <point x="501" y="478"/>
      <point x="552" y="526"/>
      <point x="622" y="526" type="curve" smooth="yes"/>
      <point x="694" y="526"/>
      <point x="729" y="479"/>
      <point x="729" y="404" type="curve" smooth="yes"/>
    </contour>
  </outline>
</glyph>
<glyph name="o" format="1">
  <advance width="501"/>
  <unicode hex="006F"/>
  <outline>
    <contour>
      <point x="461" y="256" type="line" smooth="yes"/>
      <point x="461" y="98"/>
      <point x="381" y="-10"/>
      <point x="251" y="-10" type="curve" smooth="yes"/>
      <point x="120" y="-10"/>
      <point x="39" y="96"/>
      <point x="39" y="254" type="curve" smooth="yes"/>
      <point x="39" y="265" type="line" smooth="yes"/>
      <point x="39" y="423"/>
      <point x="120" y="531"/>
      <point x="251" y="531" type="curve" smooth="yes"/>
      <point x="381" y="531"/>
      <point x="461" y="425"/>
      <point x="461" y="267" type="curve" smooth="yes"/>
    </contour>
    <contour>
      <point x="375" y="254" type="curve" smooth="yes"/>
      <point x="375" y="265" type="line" smooth="yes"/>
      <point x="375" y="395"/>
      <point x="331" y="473"/>
      <point x="251" y="473" type="curve" smooth="yes"/>
      <point x="170" y="473"/>
      <point x="126" y="395"/>
      <point x="126" y="267" type="curve" smooth="yes"/>
      <point x="126" y="255" type="line" smooth="yes"/>
      <point x="126" y="126"/>
      <point x="170" y="47"/>
      <point x="251" y="47" type="curve" smooth="yes"/>
      <point x="331" y="47"/>
      <point x="375" y="126"/>
    </contour>
  </outline>
</glyph>
<glyph name="t" format="1">
  <advance width="371"/>
  <unicode hex="0074"/>
  <outline>
    <contour>
      <point x="351" y="25" type="line"/>
      <point x="308" y="1"/>
      <point x="270" y="-10"/>
      <point x="225" y="-10" type="curve" smooth="yes"/>
      <point x="155" y="-10"/>
      <point x="110" y="22"/>
      <point x="110" y="102" type="curve" smooth="yes"/>
      <point x="110" y="455" type="line"/>
      <point x="16" y="455" type="line"/>
      <point x="16" y="517" type="line"/>
      <point x="110" y="517" type="line"/>
      <point x="110" y="686" type="line"/>
      <point x="196" y="730" type="line"/>
      <point x="196" y="517" type="line"/>
      <point x="328" y="517" type="line"/>
      <point x="328" y="455" type="line"/>
      <point x="196" y="455" type="line"/>
      <point x="196" y="119" type="line" smooth="yes"/>
      <point x="196" y="77"/>
      <point x="219" y="58"/>
      <point x="251" y="58" type="curve" smooth="yes"/>
      <point x="279" y="58"/>
      <point x="308" y="68"/>
      <point x="351" y="93" type="curve"/>
    </contour>
  </outline>
</glyph>
<glyph name="w" format="1">
  <advance width="770"/>
  <unicode hex="0077"/>
  <outline>
    <contour>
      <point x="745" y="521" type="line"/>
      <point x="588" y="-4" type="line"/>
      <point x="499" y="-4" type="line"/>
      <point x="386" y="414" type="line"/>
      <point x="273" y="-4" type="line"/>
      <point x="182" y="-4" type="line"/>
      <point x="25" y="521" type="line"/>
      <point x="115" y="521" type="line"/>
      <point x="231" y="90" type="line"/>
      <point x="345" y="521" type="line"/>
      <point x="430" y="521" type="line"/>
      <point x="544" y="90" type="line"/>
      <point x="660" y="521" type="line"/>
    </contour>
  </outline>
</glyph>
<glyph name="x" format="1">
  <advance width="488"/>
  <unicode hex="0078"/>
  <outline>
    <contour>
      <point x="463" y="0" type="line"/>
      <point x="368" y="0" type="line"/>
      <point x="241" y="205" type="line"/>
      <point x="113" y="0" type="line"/>
      <point x="26" y="0" type="line"/>
      <point x="199" y="262" type="line"/>
      <point x="31" y="521" type="line"/>
      <point x="126" y="521" type="line"/>
      <point x="247" y="323" type="line"/>
      <point x="369" y="521" type="line"/>
      <point x="457" y="521" type="line"/>
      <point x="289" y="268" type="line"/>
    </contour>
  </outline>
</glyph>
<glyph name="z" format="1">
  <advance width="428"/>
  <unicode hex="007A"/>
  <outline>
    <contour>
      <point x="398" y="0" type="line"/>
      <point x="29" y="0" type="line"/>
      <point x="29" y="54" type="line"/>
      <point x="299" y="456" type="line"/>
      <point x="44" y="456" type="line"/>
      <point x="44" y="517" type="line"/>
      <point x="398" y="517" type="line"/>
      <point x="398" y="464" type="line"/>
      <point x="128" y="61" type="line"/>
      <point x="398" y="61" type="line"/>
    </contour>
  </outline>
</glyph>
<glyph name="braceleft" format="1">
  <advance width="398"/>
  <unicode hex="007B"/>
  <outline>
    <contour>
      <point x="366" y="-80" type="line"/>
      <point x="270" y="-80" type="line" smooth="yes"/>
      <point x="178" y="-80"/>
      <point x="132" y="-36"/>
      <point x="132" y="45" type="curve" smooth="yes"/>
      <point x="132" y="90"/>
      <point x="152" y="156"/>
      <point x="152" y="199" type="curve" smooth="yes"/>
      <point x="152" y="270"/>
      <point x="96" y="297"/>
      <point x="21" y="297" type="curve"/>
      <point x="21" y="343" type="line"/>
      <point x="96" y="343"/>
      <point x="152" y="370"/>
      <point x="152" y="441" type="curve" smooth="yes"/>
      <point x="152" y="484"/>
      <point x="132" y="550"/>
      <point x="132" y="595" type="curve" smooth="yes"/>
      <point x="132" y="676"/>
      <point x="178" y="720"/>
      <point x="270" y="720" type="curve" smooth="yes"/>
      <point x="366" y="720" type="line"/>
      <point x="366" y="675" type="line"/>
      <point x="298" y="675" type="line" smooth="yes"/>
      <point x="241" y="675"/>
      <point x="216" y="642"/>
      <point x="216" y="597" type="curve" smooth="yes"/>
      <point x="216" y="557"/>
      <point x="236" y="496"/>
      <point x="236" y="447" type="curve" smooth="yes"/>
      <point x="236" y="370"/>
      <point x="187" y="343"/>
      <point x="131" y="324" type="curve"/>
      <point x="131" y="316" type="line"/>
      <point x="187" y="297"/>
      <point x="236" y="270"/>
      <point x="236" y="193" type="curve" smooth="yes"/>
      <point x="236" y="144"/>
      <point x="216" y="83"/>
      <point x="216" y="43" type="curve" smooth="yes"/>
      <point x="216" y="-2"/>
      <point x="241" y="-35"/>
      <point x="298" y="-35" type="curve" smooth="yes"/>
      <point x="366" y="-35" type="line"/>
    </contour>
  </outline>
</glyph>
<glyph name="asciitilde" format="1">
  <advance width="393"/>
  <unicode hex="007E"/>
  <outline>
    <contour>
      <point x="355" y="341" type="line"/>
      <point x="356" y="260"/>
      <point x="329" y="223"/>
      <point x="272" y="223" type="curve" smooth="yes"/>
      <point x="215" y="223"/>
      <point x="164" y="278"/>
      <point x="126" y="278" type="curve" smooth="yes"/>
      <point x="98" y="278"/>
      <point x="86" y="262"/>
      <point x="86" y="225" type="curve"/>
      <point x="38" y="225" type="line"/>
      <point x="37" y="306"/>
      <point x="64" y="343"/>
      <point x="121" y="343" type="curve" smooth="yes"/>
      <point x="179" y="343"/>
      <point x="230" y="287"/>
      <point x="268" y="287" type="curve" smooth="yes"/>
      <point x="295" y="287"/>
      <point x="307" y="303"/>
      <point x="307" y="341" type="curve"/>
    </contour>
  </outline>
</glyph>
<glyph name="sterling" format="1">
  <advance width="580"/>
  <unicode hex="00A3"/>
  <outline>
    <contour>
      <point x="556" y="172" type="line"/>
      <point x="532" y="49"/>
      <point x="486" y="-6"/>
      <point x="384" y="-6" type="curve" smooth="yes"/>
      <point x="316" y="-6"/>
      <point x="263" y="20"/>
      <point x="201" y="63" type="curve"/>
      <point x="166" y="30"/>
      <point x="118" y="7"/>
      <point x="55" y="-6" type="curve"/>
      <point x="55" y="63" type="line"/>
      <point x="126" y="81"/>
      <point x="175" y="121"/>
      <point x="175" y="215" type="curve" smooth="yes"/>
      <point x="175" y="258"/>
      <point x="167" y="295"/>
      <point x="157" y="331" type="curve"/>
      <point x="37" y="331" type="line"/>
      <point x="37" y="384" type="line"/>
      <point x="140" y="384" type="line"/>
      <point x="124" y="434"/>
      <point x="108" y="481"/>
      <point x="108" y="534" type="curve" smooth="yes"/>
      <point x="108" y="646"/>
      <point x="179" y="732"/>
      <point x="317" y="732" type="curve" smooth="yes"/>
      <point x="424" y="732"/>
      <point x="484" y="690"/>
      <point x="526" y="618" type="curve"/>
      <point x="453" y="577" type="line"/>
      <point x="417" y="634"/>
      <point x="377" y="663"/>
      <point x="315" y="663" type="curve" smooth="yes"/>
      <point x="232" y="663"/>
      <point x="193" y="610"/>
      <point x="193" y="535" type="curve" smooth="yes"/>
      <point x="193" y="485"/>
      <point x="210" y="437"/>
      <point x="227" y="384" type="curve"/>
      <point x="416" y="384" type="line"/>
      <point x="416" y="331" type="line"/>
      <point x="243" y="331" type="line"/>
      <point x="251" y="296"/>
      <point x="258" y="259"/>
      <point x="258" y="216" type="curve" smooth="yes"/>
      <point x="258" y="180"/>
      <point x="252" y="149"/>
      <point x="240" y="122" type="curve"/>
      <point x="288" y="85"/>
      <point x="335" y="66"/>
      <point x="377" y="66" type="curve" smooth="yes"/>
      <point x="441" y="66"/>
      <point x="474" y="97"/>
      <point x="494" y="193" type="curve"/>
    </contour>
  </outline>
</glyph>
<glyph name="section" format="1">
  <advance width="582"/>
  <unicode hex="00A7"/>
  <outline>
    <contour>
      <point x="547" y="353" type="curve" smooth="yes"/>
      <point x="547" y="290"/>
      <point x="486" y="238"/>
      <point x="379" y="230" type="curve"/>
      <point x="379" y="224" type="line"/>
      <point x="452" y="201"/>
      <point x="484" y="162"/>
      <point x="484" y="109" type="curve" smooth="yes"/>
      <point x="484" y="36"/>
      <point x="413" y="-12"/>
      <point x="302" y="-12" type="curve" smooth="yes"/>
      <point x="219" y="-12"/>
      <point x="162" y="4"/>
      <point x="94" y="41" type="curve"/>
      <point x="128" y="97" type="line"/>
      <point x="188" y="63"/>
      <point x="242" y="47"/>
      <point x="306" y="47" type="curve" smooth="yes"/>
      <point x="369" y="47"/>
      <point x="409" y="72"/>
      <point x="409" y="107" type="curve" smooth="yes"/>
      <point x="409" y="148"/>
      <point x="390" y="174"/>
      <point x="241" y="214" type="curve" smooth="yes"/>
      <point x="92" y="254"/>
      <point x="36" y="301"/>
      <point x="36" y="367" type="curve" smooth="yes"/>
      <point x="36" y="430"/>
      <point x="96" y="482"/>
      <point x="203" y="490" type="curve"/>
      <point x="203" y="496" type="line"/>
      <point x="130" y="519"/>
      <point x="99" y="558"/>
      <point x="99" y="611" type="curve" smooth="yes"/>
      <point x="99" y="684"/>
      <point x="170" y="732"/>
      <point x="280" y="732" type="curve" smooth="yes"/>
      <point x="363" y="732"/>
      <point x="420" y="716"/>
      <point x="489" y="679" type="curve"/>
      <point x="455" y="623" type="line"/>
      <point x="395" y="657"/>
      <point x="341" y="673"/>
      <point x="276" y="673" type="curve" smooth="yes"/>
      <point x="213" y="673"/>
      <point x="174" y="648"/>
      <point x="174" y="613" type="curve" smooth="yes"/>
      <point x="174" y="572"/>
      <point x="192" y="546"/>
      <point x="342" y="506" type="curve" smooth="yes"/>
      <point x="491" y="466"/>
      <point x="547" y="419"/>
    </contour>
    <contour>
      <point x="477" y="341" type="curve" smooth="yes"/>
      <point x="477" y="383"/>
      <point x="441" y="416"/>
      <point x="344" y="445" type="curve" smooth="yes"/>
      <point x="306" y="456"/>
      <point x="273" y="461"/>
      <point x="231" y="461" type="curve" smooth="yes"/>
      <point x="159" y="461"/>
      <point x="106" y="431"/>
      <point x="106" y="379" type="curve" smooth="yes"/>
      <point x="106" y="337"/>
      <point x="141" y="304"/>
      <point x="239" y="275" type="curve" smooth="yes"/>
      <point x="277" y="264"/>
      <point x="310" y="259"/>
      <point x="352" y="259" type="curve" smooth="yes"/>
      <point x="424" y="259"/>
      <point x="477" y="289"/>
    </contour>
  </outline>
</glyph>
<glyph name="ordfeminine" format="1">
  <advance width="384"/>
  <unicode hex="00AA"/>
  <outline>
    <contour>
      <point x="346" y="370" type="line"/>
      <point x="289" y="368"/>
      <point x="259" y="389"/>
      <point x="251" y="427" type="curve"/>
      <point x="219" y="387"/>
      <point x="183" y="368"/>
      <point x="143" y="368" type="curve" smooth="yes"/>
      <point x="90" y="368"/>
      <point x="46" y="400"/>
      <point x="46" y="462" type="curve" smooth="yes"/>
      <point x="46" y="532"/>
      <point x="114" y="579"/>
      <point x="249" y="580" type="curve"/>
      <point x="249" y="616" type="line" smooth="yes"/>
      <point x="249" y="659"/>
      <point x="232" y="678"/>
      <point x="196" y="678" type="curve" smooth="yes"/>
      <point x="163" y="678"/>
      <point x="131" y="668"/>
      <point x="90" y="644" type="curve"/>
      <point x="72" y="686" type="line"/>
      <point x="114" y="709"/>
      <point x="154" y="725"/>
      <point x="206" y="725" type="curve" smooth="yes"/>
      <point x="279" y="725"/>
      <point x="310" y="692"/>
      <point x="310" y="618" type="curve" smooth="yes"/>
      <point x="310" y="444" type="line" smooth="yes"/>
      <point x="310" y="419"/>
      <point x="319" y="404"/>
      <point x="346" y="401" type="curve"/>
    </contour>
    <contour>
      <point x="334" y="254" type="line"/>
      <point x="49" y="254" type="line"/>
      <point x="49" y="296" type="line"/>
      <point x="334" y="296" type="line"/>
    </contour>
    <contour>
      <point x="249" y="460" type="curve"/>
      <point x="249" y="550" type="line"/>
      <point x="146" y="549"/>
      <point x="107" y="512"/>
      <point x="107" y="468" type="curve" smooth="yes"/>
      <point x="107" y="432"/>
      <point x="130" y="411"/>
      <point x="163" y="411" type="curve" smooth="yes"/>
      <point x="196" y="411"/>
      <point x="224" y="428"/>
    </contour>
  </outline>
</glyph>
<glyph name="guillemotleft" format="1">
  <advance width="469"/>
  <unicode hex="00AB"/>
  <outline>
    <contour>
      <point x="436" y="76" type="line"/>
      <point x="382" y="76" type="line"/>
      <point x="224" y="260" type="line"/>
      <point x="382" y="445" type="line"/>
      <point x="436" y="445" type="line"/>
      <point x="319" y="260" type="line"/>
    </contour>
    <contour>
      <point x="238" y="76" type="line"/>
      <point x="183" y="76" type="line"/>
      <point x="25" y="260" type="line"/>
      <point x="183" y="445" type="line"/>
      <point x="238" y="445" type="line"/>
      <point x="120" y="260" type="line"/>
    </contour>
  </outline>
</glyph>
<glyph name="degree" format="1">
  <advance width="400"/>
  <unicode hex="00B0"/>
  <outline>
    <contour>
      <point x="351" y="575" type="curve" smooth="yes"/>
      <point x="351" y="489"/>
      <point x="287" y="427"/>
      <point x="200" y="427" type="curve" smooth="yes"/>
      <point x="113" y="427"/>
      <point x="49" y="489"/>
      <point x="49" y="575" type="curve" smooth="yes"/>
      <point x="49" y="662"/>
      <point x="113" y="724"/>
      <point x="200" y="724" type="curve" smooth="yes"/>
      <point x="287" y="724"/>
      <point x="351" y="662"/>
    </contour>
    <contour>
      <point x="297" y="575" type="curve" smooth="yes"/>
      <point x="297" y="634"/>
      <point x="257" y="677"/>
      <point x="200" y="677" type="curve" smooth="yes"/>
      <point x="143" y="677"/>
      <point x="103" y="634"/>
      <point x="103" y="575" type="curve" smooth="yes"/>
      <point x="103" y="516"/>
      <point x="143" y="474"/>
      <point x="200" y="474" type="curve" smooth="yes"/>
      <point x="257" y="474"/>
      <point x="297" y="516"/>
    </contour>
  </outline>
</glyph>
<glyph name="paragraph" format="1">
  <advance width="534"/>
  <unicode hex="00B6"/>
  <outline>
    <contour>
      <point x="455" y="0" type="line"/>
      <point x="404" y="0" type="line"/>
      <point x="404" y="674" type="line"/>
      <point x="307" y="674" type="line"/>
      <point x="307" y="0" type="line"/>
      <point x="256" y="0" type="line"/>
      <point x="256" y="350" type="line"/>
      <point x="112" y="352"/>
      <point x="32" y="421"/>
      <point x="32" y="533" type="curve" smooth="yes"/>
      <point x="32" y="654"/>
      <point x="120" y="720"/>
      <point x="259" y="720" type="curve" smooth="yes"/>
      <point x="455" y="720" type="line"/>
    </contour>
  </outline>
</glyph>
<glyph name="ordmasculine" format="1">
  <advance width="384"/>
  <unicode hex="00BA"/>
  <outline>
    <contour>
      <point x="337" y="546" type="curve" smooth="yes"/>
      <point x="337" y="437"/>
      <point x="280" y="365"/>
      <point x="192" y="365" type="curve" smooth="yes"/>
      <point x="104" y="365"/>
      <point x="48" y="437"/>
      <point x="48" y="546" type="curve" smooth="yes"/>
      <point x="48" y="656"/>
      <point x="104" y="727"/>
      <point x="192" y="727" type="curve" smooth="yes"/>
      <point x="280" y="727"/>
      <point x="337" y="655"/>
    </contour>
    <contour>
      <point x="330" y="254" type="line"/>
      <point x="55" y="254" type="line"/>
      <point x="55" y="296" type="line"/>
      <point x="330" y="296" type="line"/>
    </contour>
    <contour>
      <point x="272" y="545" type="curve" smooth="yes"/>
      <point x="272" y="631"/>
      <point x="244" y="683"/>
      <point x="192" y="683" type="curve" smooth="yes"/>
      <point x="141" y="683"/>
      <point x="112" y="632"/>
      <point x="112" y="547" type="curve" smooth="yes"/>
      <point x="112" y="462"/>
      <point x="141" y="410"/>
      <point x="192" y="410" type="curve" smooth="yes"/>
      <point x="244" y="410"/>
      <point x="272" y="461"/>
    </contour>
  </outline>
</glyph>
<glyph name="questiondown" format="1">
  <advance width="456"/>
  <unicode hex="00BF"/>
  <outline>
    <contour>
      <point x="306" y="670" type="curve" smooth="yes"/>
      <point x="306" y="638"/>
      <point x="282" y="614"/>
      <point x="250" y="614" type="curve" smooth="yes"/>
      <point x="218" y="614"/>
      <point x="193" y="638"/>
      <point x="193" y="670" type="curve" smooth="yes"/>
      <point x="193" y="702"/>
      <point x="218" y="727"/>
      <point x="250" y="727" type="curve" smooth="yes"/>
      <point x="282" y="727"/>
      <point x="306" y="702"/>
    </contour>
    <contour>
      <point x="437" y="137" type="line"/>
      <point x="398" y="43"/>
      <point x="337" y="-12"/>
      <point x="227" y="-12" type="curve" smooth="yes"/>
      <point x="111" y="-12"/>
      <point x="41" y="60"/>
      <point x="41" y="154" type="curve" smooth="yes"/>
      <point x="41" y="234"/>
      <point x="73" y="271"/>
      <point x="146" y="337" type="curve" smooth="yes"/>
      <point x="202" y="387"/>
      <point x="219" y="418"/>
      <point x="221" y="506" type="curve"/>
      <point x="277" y="506" type="line"/>
      <point x="283" y="392"/>
      <point x="268" y="353"/>
      <point x="203" y="292" type="curve" smooth="yes"/>
      <point x="153" y="245"/>
      <point x="131" y="208"/>
      <point x="131" y="158" type="curve" smooth="yes"/>
      <point x="131" y="100"/>
      <point x="168" y="58"/>
      <point x="231" y="58" type="curve" smooth="yes"/>
      <point x="298" y="58"/>
      <point x="334" y="91"/>
      <point x="369" y="168" type="curve"/>
    </contour>
  </outline>
</glyph>
<glyph name="Thorn" format="1">
  <advance width="576"/>
  <unicode hex="00DE"/>
  <outline>
    <contour>
      <point x="541" y="373" type="curve" smooth="yes"/>
      <point x="541" y="234"/>
      <point x="452" y="159"/>
      <point x="293" y="159" type="curve" smooth="yes"/>
      <point x="171" y="159" type="line"/>
      <point x="171" y="0" type="line"/>
      <point x="78" y="0" type="line"/>
      <point x="78" y="720" type="line"/>
      <point x="171" y="720" type="line"/>
      <point x="171" y="581" type="line"/>
      <point x="299" y="581" type="line" smooth="yes"/>
      <point x="450" y="581"/>
      <point x="541" y="509"/>
    </contour>
    <contour>
      <point x="448" y="371" type="curve" smooth="yes"/>
      <point x="448" y="462"/>
      <point x="394" y="512"/>
      <point x="290" y="512" type="curve" smooth="yes"/>
      <point x="168" y="512" type="line"/>
      <point x="168" y="229" type="line"/>
      <point x="293" y="229" type="line" smooth="yes"/>
      <point x="392" y="229"/>
      <point x="448" y="277"/>
    </contour>
  </outline>
</glyph>
<glyph name="germandbls" format="1">
  <advance width="585"/>
  <unicode hex="00DF"/>
  <outline>
    <contour>
      <point x="547" y="186" type="curve" smooth="yes"/>
      <point x="547" y="65"/>
      <point x="470" y="-8"/>
      <point x="357" y="-8" type="curve" smooth="yes"/>
      <point x="295" y="-8"/>
      <point x="257" y="9"/>
      <point x="227" y="33" type="curve"/>
      <point x="248" y="88" type="line"/>
      <point x="275" y="65"/>
      <point x="300" y="52"/>
      <point x="346" y="52" type="curve" smooth="yes"/>
      <point x="410" y="52"/>
      <point x="461" y="100"/>
      <point x="461" y="185" type="curve" smooth="yes"/>
      <point x="461" y="299"/>
      <point x="381" y="369"/>
      <point x="248" y="384" type="curve"/>
      <point x="248" y="440" type="line"/>
      <point x="349" y="445"/>
      <point x="398" y="506"/>
      <point x="398" y="580" type="curve" smooth="yes"/>
      <point x="398" y="648"/>
      <point x="355" y="698"/>
      <point x="277" y="698" type="curve" smooth="yes"/>
      <point x="197" y="698"/>
      <point x="152" y="642"/>
      <point x="152" y="545" type="curve" smooth="yes"/>
      <point x="152" y="0" type="line"/>
      <point x="65" y="0" type="line"/>
      <point x="65" y="535" type="line" smooth="yes"/>
      <point x="65" y="677"/>
      <point x="147" y="759"/>
      <point x="280" y="759" type="curve" smooth="yes"/>
      <point x="409" y="759"/>
      <point x="483" y="685"/>
      <point x="483" y="586" type="curve" smooth="yes"/>
      <point x="483" y="498"/>
      <point x="430" y="443"/>
      <point x="361" y="419" type="curve"/>
      <point x="361" y="412" type="line"/>
      <point x="457" y="386"/>
      <point x="547" y="315"/>
    </contour>
  </outline>
</glyph>
<glyph name="ccedilla" format="1">
  <advance width="456"/>
  <unicode hex="00E7"/>
  <outline>
    <contour>
      <point x="428" y="130" type="line"/>
      <point x="400" y="46"/>
      <point x="344" y="-4"/>
      <point x="260" y="-10" type="curve"/>
      <point x="233" y="-52" type="line"/>
      <point x="247" y="-47"/>
      <point x="262" y="-44"/>
      <point x="280" y="-44" type="curve" smooth="yes"/>
      <point x="325" y="-44"/>
      <point x="355" y="-63"/>
      <point x="355" y="-101" type="curve" smooth="yes"/>
      <point x="355" y="-164"/>
      <point x="281" y="-194"/>
      <point x="131" y="-191" type="curve"/>
      <point x="131" y="-165" type="line"/>
      <point x="251" y="-163"/>
      <point x="292" y="-143"/>
      <point x="292" y="-113" type="curve" smooth="yes"/>
      <point x="292" y="-95"/>
      <point x="278" y="-85"/>
      <point x="254" y="-85" type="curve" smooth="yes"/>
      <point x="234" y="-85"/>
      <point x="217" y="-89"/>
      <point x="199" y="-97" type="curve"/>
      <point x="174" y="-81" type="line"/>
      <point x="221" y="-9" type="line"/>
      <point x="110" y="4"/>
      <point x="39" y="105"/>
      <point x="39" y="254" type="curve" smooth="yes"/>
      <point x="39" y="265" type="line" smooth="yes"/>
      <point x="39" y="423"/>
      <point x="120" y="531"/>
      <point x="249" y="531" type="curve" smooth="yes"/>
      <point x="342" y="531"/>
      <point x="397" y="482"/>
      <point x="425" y="393" type="curve"/>
      <point x="350" y="373" type="line"/>
      <point x="328" y="436"/>
      <point x="302" y="470"/>
      <point x="247" y="470" type="curve" smooth="yes"/>
      <point x="170" y="470"/>
      <point x="126" y="392"/>
      <point x="126" y="264" type="curve" smooth="yes"/>
      <point x="126" y="258" type="line" smooth="yes"/>
      <point x="126" y="129"/>
      <point x="170" y="50"/>
      <point x="248" y="50" type="curve" smooth="yes"/>
      <point x="300" y="50"/>
      <point x="330" y="82"/>
      <point x="355" y="150" type="curve"/>
    </contour>
  </outline>
</glyph>
<glyph name="divide" format="1">
  <advance width="600"/>
  <unicode hex="00F7"/>
  <outline>
    <contour>
      <point x="359" y="564" type="curve" smooth="yes"/>
      <point x="359" y="530"/>
      <point x="334" y="505"/>
      <point x="300" y="505" type="curve" smooth="yes"/>
      <point x="266" y="505"/>
      <point x="241" y="530"/>
      <point x="241" y="564" type="curve" smooth="yes"/>
      <point x="241" y="597"/>
      <point x="266" y="623"/>
      <point x="300" y="623" type="curve" smooth="yes"/>
      <point x="334" y="623"/>
      <point x="359" y="597"/>
    </contour>
    <contour>
      <point x="556" y="317" type="line"/>
      <point x="44" y="317" type="line"/>
      <point x="44" y="393" type="line"/>
      <point x="556" y="393" type="line"/>
    </contour>
    <contour>
      <point x="359" y="146" type="curve" smooth="yes"/>
      <point x="359" y="113"/>
      <point x="334" y="87"/>
      <point x="300" y="87" type="curve" smooth="yes"/>
      <point x="266" y="87"/>
      <point x="241" y="113"/>
      <point x="241" y="146" type="curve" smooth="yes"/>
      <point x="241" y="180"/>
      <point x="266" y="205"/>
      <point x="300" y="205" type="curve" smooth="yes"/>
      <point x="334" y="205"/>
      <point x="359" y="180"/>
    </contour>
  </outline>
</glyph>
<glyph name="oslash" format="1">
  <advance width="501"/>
  <unicode hex="00F8"/>
  <outline>
    <contour>
      <point x="39" y="-95" type="line"/>
      <point x="112" y="43" type="line"/>
      <point x="65" y="90"/>
      <point x="39" y="163"/>
      <point x="39" y="254" type="curve" smooth="yes"/>
      <point x="39" y="265" type="line" smooth="yes"/>
      <point x="39" y="423"/>
      <point x="120" y="531"/>
      <point x="251" y="531" type="curve" smooth="yes"/>
      <point x="288" y="531"/>
      <point x="322" y="521"/>
      <point x="351" y="503" type="curve"/>
      <point x="407" y="616" type="line"/>
      <point x="461" y="616" type="line"/>
      <point x="388" y="477" type="line"/>
      <point x="436" y="431"/>
      <point x="461" y="357"/>
      <point x="461" y="267" type="curve" smooth="yes"/>
      <point x="461" y="256" type="line" smooth="yes"/>
      <point x="461" y="98"/>
      <point x="381" y="-10"/>
      <point x="251" y="-10" type="curve" smooth="yes"/>
      <point x="212" y="-10"/>
      <point x="180" y="0"/>
      <point x="151" y="17" type="curve"/>
      <point x="94" y="-95" type="line"/>
    </contour>
    <contour>
      <point x="154" y="111" type="curve"/>
      <point x="323" y="447" type="line"/>
      <point x="304" y="466"/>
      <point x="279" y="476"/>
      <point x="251" y="476" type="curve" smooth="yes"/>
      <point x="169" y="476"/>
      <point x="121" y="398"/>
      <point x="121" y="267" type="curve" smooth="yes"/>
      <point x="121" y="255" type="line" smooth="yes"/>
      <point x="121" y="198"/>
      <point x="132" y="146"/>
    </contour>
    <contour>
      <point x="251" y="44" type="curve" smooth="yes"/>
      <point x="331" y="44"/>
      <point x="380" y="122"/>
      <point x="380" y="254" type="curve" smooth="yes"/>
      <point x="380" y="265" type="line" smooth="yes"/>
      <point x="380" y="323"/>
      <point x="368" y="374"/>
      <point x="346" y="408" type="curve"/>
      <point x="177" y="73" type="line"/>
      <point x="197" y="54"/>
      <point x="222" y="44"/>
    </contour>
  </outline>
</glyph>
<glyph name="lslash" format="1">
  <advance width="306"/>
  <unicode hex="0142"/>
  <outline>
    <contour>
      <point x="280" y="390" type="line"/>
      <point x="195" y="352" type="line"/>
      <point x="195" y="0" type="line"/>
      <point x="110" y="0" type="line"/>
      <point x="110" y="318" type="line"/>
      <point x="26" y="279" type="line"/>
      <point x="26" y="352" type="line"/>
      <point x="110" y="390" type="line"/>
      <point x="110" y="737" type="line"/>
      <point x="195" y="760" type="line"/>
      <point x="195" y="425" type="line"/>
      <point x="280" y="464" type="line"/>
    </contour>
  </outline>
</glyph>
<glyph name="oe" format="1">
  <advance width="808"/>
  <unicode hex="0153"/>
  <outline>
    <contour>
      <point x="248" y="-10" type="curve" smooth="yes"/>
      <point x="120" y="-10"/>
      <point x="39" y="96"/>
      <point x="39" y="254" type="curve" smooth="yes"/>
      <point x="39" y="265" type="line" smooth="yes"/>
      <point x="39" y="423"/>
      <point x="120" y="531"/>
      <point x="246" y="531" type="curve" smooth="yes"/>
      <point x="333" y="531"/>
      <point x="391" y="478"/>
      <point x="415" y="394" type="curve"/>
      <point x="423" y="394" type="line"/>
      <point x="447" y="478"/>
      <point x="502" y="531"/>
      <point x="581" y="531" type="curve" smooth="yes"/>
      <point x="697" y="531"/>
      <point x="769" y="426"/>
      <point x="769" y="263" type="curve" smooth="yes"/>
      <point x="769" y="242" type="line"/>
      <point x="459" y="242" type="line"/>
      <point x="462" y="115"/>
      <point x="516" y="53"/>
      <point x="600" y="53" type="curve" smooth="yes"/>
      <point x="651" y="53"/>
      <point x="693" y="73"/>
      <point x="737" y="110" type="curve"/>
      <point x="767" y="58" type="line"/>
      <point x="715" y="16"/>
      <point x="665" y="-9"/>
      <point x="594" y="-9" type="curve" smooth="yes"/>
      <point x="503" y="-9"/>
      <point x="449" y="38"/>
      <point x="423" y="125" type="curve"/>
      <point x="415" y="125" type="line"/>
      <point x="391" y="45"/>
      <point x="336" y="-10"/>
    </contour>
    <contour>
      <point x="460" y="287" type="curve"/>
      <point x="686" y="287" type="line"/>
      <point x="680" y="412"/>
      <point x="645" y="475"/>
      <point x="576" y="475" type="curve" smooth="yes"/>
      <point x="506" y="475"/>
      <point x="464" y="406"/>
    </contour>
    <contour>
      <point x="251" y="47" type="curve" smooth="yes"/>
      <point x="331" y="47"/>
      <point x="375" y="126"/>
      <point x="375" y="254" type="curve" smooth="yes"/>
      <point x="375" y="265" type="line" smooth="yes"/>
      <point x="375" y="395"/>
      <point x="331" y="473"/>
      <point x="251" y="473" type="curve" smooth="yes"/>
      <point x="170" y="473"/>
      <point x="126" y="395"/>
      <point x="126" y="267" type="curve" smooth="yes"/>
      <point x="126" y="255" type="line" smooth="yes"/>
      <point x="126" y="126"/>
      <point x="170" y="47"/>
    </contour>
  </outline>
</glyph>
<glyph name="caron" format="1">
  <advance width="500"/>
  <unicode hex="02C7"/>
  <outline>
    <contour>
      <point x="408" y="752" type="line"/>
      <point x="286" y="592" type="line"/>
      <point x="214" y="592" type="line"/>
      <point x="92" y="752" type="line"/>
      <point x="140" y="752" type="line"/>
      <point x="251" y="653" type="line"/>
      <point x="362" y="752" type="line"/>
    </contour>
  </outline>
</glyph>
<glyph name="dotaccent" format="1">
  <advance width="500"/>
  <unicode hex="02D9"/>
  <outline>
    <contour>
      <point x="294" y="592" type="line"/>
      <point x="206" y="592" type="line"/>
      <point x="206" y="689" type="line"/>
      <point x="294" y="689" type="line"/>
    </contour>
  </outline>
</glyph>
<glyph name="tilde" format="1">
  <advance width="500"/>
  <unicode hex="02DC"/>
  <outline>
    <contour>
      <point x="408" y="710" type="line"/>
      <point x="410" y="629"/>
      <point x="383" y="592"/>
      <point x="325" y="592" type="curve" smooth="yes"/>
      <point x="268" y="592"/>
      <point x="217" y="647"/>
      <point x="179" y="647" type="curve" smooth="yes"/>
      <point x="152" y="647"/>
      <point x="140" y="632"/>
      <point x="139" y="594" type="curve"/>
      <point x="92" y="594" type="line"/>
      <point x="90" y="675"/>
      <point x="117" y="712"/>
      <point x="175" y="712" type="curve" smooth="yes"/>
      <point x="232" y="712"/>
      <point x="283" y="657"/>
      <point x="321" y="657" type="curve" smooth="yes"/>
      <point x="348" y="657"/>
      <point x="360" y="672"/>
      <point x="361" y="710" type="curve"/>
    </contour>
  </outline>
</glyph>
<glyph name="hungarumlaut" format="1">
  <advance width="500"/>
  <unicode hex="02DD"/>
  <outline>
    <contour>
      <point x="442" y="743" type="line"/>
      <point x="302" y="592" type="line"/>
      <point x="247" y="592" type="line"/>
      <point x="335" y="743" type="line"/>
    </contour>
    <contour>
      <point x="260" y="743" type="line"/>
      <point x="119" y="592" type="line"/>
      <point x="65" y="592" type="line"/>
      <point x="153" y="743" type="line"/>
    </contour>
  </outline>
</glyph>
<glyph name="quoteleft" format="1">
  <advance width="198"/>
  <unicode hex="2018"/>
  <unicode hex="02BB"/>
  <outline>
    <contour>
      <point x="159" y="489" type="line"/>
      <point x="107" y="489" type="line"/>
      <point x="28" y="720" type="line"/>
      <point x="127" y="720" type="line"/>
    </contour>
  </outline>
</glyph>
<glyph name="quotedblright" format="1">
  <advance width="360"/>
  <unicode hex="201D"/>
  <outline>
    <contour>
      <point x="331" y="720" type="line"/>
      <point x="253" y="489" type="line"/>
      <point x="203" y="489" type="line"/>
      <point x="235" y="720" type="line"/>
    </contour>
    <contour>
      <point x="168" y="720" type="line"/>
      <point x="90" y="489" type="line"/>
      <point x="39" y="489" type="line"/>
      <point x="71" y="720" type="line"/>
    </contour>
  </outline>
</glyph>
<glyph name="quotedblbase" format="1">
  <advance width="360"/>
  <unicode hex="201E"/>
  <outline>
    <contour>
      <point x="322" y="113" type="line"/>
      <point x="244" y="-118" type="line"/>
      <point x="194" y="-118" type="line"/>
      <point x="225" y="113" type="line"/>
    </contour>
    <contour>
      <point x="159" y="113" type="line"/>
      <point x="81" y="-118" type="line"/>
      <point x="30" y="-118" type="line"/>
      <point x="62" y="113" type="line"/>
    </contour>
  </outline>
</glyph>
<glyph name="dagger" format="1">
  <advance width="445"/>
  <unicode hex="2020"/>
  <outline>
    <contour>
      <point x="414" y="458" type="line"/>
      <point x="248" y="479" type="line"/>
      <point x="270" y="344" type="line"/>
      <point x="239" y="0" type="line"/>
      <point x="205" y="0" type="line"/>
      <point x="174" y="344" type="line"/>
      <point x="196" y="479" type="line"/>
      <point x="30" y="458" type="line"/>
      <point x="30" y="531" type="line"/>
      <point x="196" y="509" type="line"/>
      <point x="174" y="720" type="line"/>
      <point x="270" y="720" type="line"/>
      <point x="248" y="509" type="line"/>
      <point x="414" y="531" type="line"/>
    </contour>
  </outline>
</glyph>
<glyph name="daggerdbl" format="1">
  <advance width="475"/>
  <unicode hex="2021"/>
  <outline>
    <contour>
      <point x="429" y="169" type="line"/>
      <point x="262" y="191" type="line"/>
      <point x="285" y="0" type="line"/>
      <point x="189" y="0" type="line"/>
      <point x="213" y="191" type="line"/>
      <point x="45" y="169" type="line"/>
      <point x="45" y="242" type="line"/>
      <point x="213" y="221" type="line"/>
      <point x="191" y="360" type="line"/>
      <point x="213" y="499" type="line"/>
      <point x="45" y="478" type="line"/>
      <point x="45" y="551" type="line"/>
      <point x="213" y="529" type="line"/>
      <point x="189" y="720" type="line"/>
      <point x="285" y="720" type="line"/>
      <point x="262" y="529" type="line"/>
      <point x="429" y="551" type="line"/>
      <point x="429" y="478" type="line"/>
      <point x="262" y="499" type="line"/>
      <point x="283" y="360" type="line"/>
      <point x="262" y="221" type="line"/>
      <point x="429" y="242" type="line"/>
    </contour>
  </outline>
</glyph>
<glyph name="ellipsis" format="1">
  <advance width="620"/>
  <unicode hex="2026"/>
  <outline>
    <contour>
      <point x="577" y="48" type="curve" smooth="yes"/>
      <point x="577" y="17"/>
      <point x="554" y="-7"/>
      <point x="522" y="-7" type="curve" smooth="yes"/>
      <point x="491" y="-7"/>
      <point x="468" y="17"/>
      <point x="468" y="48" type="curve" smooth="yes"/>
      <point x="468" y="80"/>
      <point x="491" y="103"/>
      <point x="522" y="103" type="curve" smooth="yes"/>
      <point x="554" y="103"/>
      <point x="577" y="80"/>
    </contour>
    <contour>
      <point x="365" y="48" type="curve" smooth="yes"/>
      <point x="365" y="17"/>
      <point x="342" y="-7"/>
      <point x="310" y="-7" type="curve" smooth="yes"/>
      <point x="279" y="-7"/>
      <point x="255" y="17"/>
      <point x="255" y="48" type="curve" smooth="yes"/>
      <point x="255" y="80"/>
      <point x="279" y="103"/>
      <point x="310" y="103" type="curve" smooth="yes"/>
      <point x="342" y="103"/>
      <point x="365" y="80"/>
    </contour>
    <contour>
      <point x="153" y="48" type="curve" smooth="yes"/>
      <point x="153" y="17"/>
      <point x="130" y="-7"/>
      <point x="98" y="-7" type="curve" smooth="yes"/>
      <point x="67" y="-7"/>
      <point x="43" y="17"/>
      <point x="43" y="48" type="curve" smooth="yes"/>
      <point x="43" y="80"/>
      <point x="67" y="103"/>
      <point x="98" y="103" type="curve" smooth="yes"/>
      <point x="130" y="103"/>
      <point x="153" y="80"/>
    </contour>
  </outline>
</glyph>
<glyph name="guilsinglleft" format="1">
  <advance width="271"/>
  <unicode hex="2039"/>
  <outline>
    <contour>
      <point x="238" y="76" type="line"/>
      <point x="183" y="76" type="line"/>
      <point x="25" y="260" type="line"/>
      <point x="183" y="445" type="line"/>
      <point x="238" y="445" type="line"/>
      <point x="120" y="260" type="line"/>
    </contour>
  </outline>
</glyph>
<glyph name="guilsinglright" format="1">
  <advance width="271"/>
  <unicode hex="203A"/>
  <outline>
    <contour>
      <point x="245" y="260" type="line"/>
      <point x="87" y="76" type="line"/>
      <point x="32" y="76" type="line"/>
      <point x="150" y="260" type="line"/>
      <point x="32" y="445" type="line"/>
      <point x="87" y="445" type="line"/>
    </contour>
  </outline>
</glyph>
<glyph name="fraction" format="1">
  <advance width="378"/>
  <unicode hex="2044"/>
  <outline>
    <contour>
      <point x="420" y="735" type="line"/>
      <point x="40" y="-15" type="line"/>
      <point x="-43" y="-15" type="line"/>
      <point x="337" y="735" type="line"/>
    </contour>
  </outline>
</glyph>
<glyph name="uni2117" format="1">
  <advance width="831"/>
  <unicode hex="2117"/>
  <outline>
    <contour>
      <point x="788" y="360" type="curve" smooth="yes"/>
      <point x="788" y="149"/>
      <point x="626" y="-12"/>
      <point x="415" y="-12" type="curve" smooth="yes"/>
      <point x="204" y="-12"/>
      <point x="44" y="148"/>
      <point x="44" y="360" type="curve" smooth="yes"/>
      <point x="44" y="571"/>
      <point x="205" y="732"/>
      <point x="416" y="732" type="curve" smooth="yes"/>
      <point x="627" y="732"/>
      <point x="788" y="572"/>
    </contour>
    <contour>
      <point x="749" y="360" type="curve" smooth="yes"/>
      <point x="749" y="552"/>
      <point x="608" y="698"/>
      <point x="415" y="698" type="curve" smooth="yes"/>
      <point x="223" y="698"/>
      <point x="82" y="553"/>
      <point x="82" y="360" type="curve" smooth="yes"/>
      <point x="82" y="168"/>
      <point x="223" y="22"/>
      <point x="416" y="22" type="curve" smooth="yes"/>
      <point x="609" y="22"/>
      <point x="749" y="167"/>
    </contour>
    <contour>
      <point x="578" y="446" type="curve" smooth="yes"/>
      <point x="578" y="366"/>
      <point x="526" y="321"/>
      <point x="431" y="321" type="curve" smooth="yes"/>
      <point x="371" y="321" type="line"/>
      <point x="371" y="157" type="line"/>
      <point x="304" y="157" type="line"/>
      <point x="304" y="567" type="line"/>
      <point x="435" y="567" type="line" smooth="yes"/>
      <point x="524" y="567"/>
      <point x="578" y="524"/>
    </contour>
    <contour>
      <point x="512" y="445" type="curve" smooth="yes"/>
      <point x="512" y="489"/>
      <point x="484" y="515"/>
      <point x="429" y="515" type="curve" smooth="yes"/>
      <point x="369" y="515" type="line"/>
      <point x="369" y="373" type="line"/>
      <point x="431" y="373" type="line" smooth="yes"/>
      <point x="483" y="373"/>
      <point x="512" y="398"/>
    </contour>
  </outline>
</glyph>
<glyph name="radical" format="1">
  <advance width="572"/>
  <unicode hex="221A"/>
  <outline>
    <contour>
      <point x="545" y="720" type="line"/>
      <point x="287" y="-3" type="line"/>
      <point x="190" y="-3" type="line"/>
      <point x="35" y="340" type="line"/>
      <point x="127" y="340" type="line"/>
      <point x="239" y="73" type="line"/>
      <point x="449" y="720" type="line"/>
    </contour>
  </outline>
</glyph>
<glyph name="bullet" format="1">
  <advance width="377"/>
  <outline>
    <contour>
      <point x="324" y="373" type="curve" smooth="yes"/>
      <point x="324" y="297"/>
      <point x="265" y="237"/>
      <point x="189" y="237" type="curve" smooth="yes"/>
      <point x="113" y="237"/>
      <point x="53" y="297"/>
      <point x="53" y="373" type="curve" smooth="yes"/>
      <point x="53" y="449"/>
      <point x="113" y="509"/>
      <point x="189" y="509" type="curve" smooth="yes"/>
      <point x="265" y="509"/>
      <point x="324" y="449"/>
    </contour>
  </outline>
</glyph>
<glyph name="registered.big" format="1">
  <advance width="831"/>
  <outline>
    <contour>
      <point x="788" y="360" type="curve" smooth="yes"/>
      <point x="788" y="149"/>
      <point x="626" y="-12"/>
      <point x="415" y="-12" type="curve" smooth="yes"/>
      <point x="204" y="-12"/>
      <point x="44" y="148"/>
      <point x="44" y="360" type="curve" smooth="yes"/>
      <point x="44" y="571"/>
      <point x="205" y="732"/>
      <point x="416" y="732" type="curve" smooth="yes"/>
      <point x="627" y="732"/>
      <point x="788" y="572"/>
    </contour>
    <contour>
      <point x="749" y="360" type="curve" smooth="yes"/>
      <point x="749" y="552"/>
      <point x="608" y="698"/>
      <point x="415" y="698" type="curve" smooth="yes"/>
      <point x="223" y="698"/>
      <point x="82" y="553"/>
      <point x="82" y="360" type="curve" smooth="yes"/>
      <point x="82" y="168"/>
      <point x="223" y="22"/>
      <point x="416" y="22" type="curve" smooth="yes"/>
      <point x="609" y="22"/>
      <point x="749" y="167"/>
    </contour>
    <contour>
      <point x="585" y="160" type="line"/>
      <point x="511" y="160" type="line"/>
      <point x="402" y="333" type="line"/>
      <point x="354" y="333" type="line"/>
      <point x="354" y="160" type="line"/>
      <point x="288" y="160" type="line"/>
      <point x="288" y="571" type="line"/>
      <point x="425" y="571" type="line" smooth="yes"/>
      <point x="512" y="571"/>
      <point x="567" y="531"/>
      <point x="567" y="453" type="curve" smooth="yes"/>
      <point x="567" y="391"/>
      <point x="530" y="354"/>
      <point x="470" y="341" type="curve"/>
    </contour>
    <contour>
      <point x="500" y="452" type="curve" smooth="yes"/>
      <point x="500" y="496"/>
      <point x="472" y="520"/>
      <point x="419" y="520" type="curve" smooth="yes"/>
      <point x="353" y="520" type="line"/>
      <point x="353" y="384" type="line"/>
      <point x="420" y="384" type="line" smooth="yes"/>
      <point x="472" y="384"/>
      <point x="500" y="405"/>
    </contour>
  </outline>
</glyph>
